<?xml version="1.0" standalone="no"?>
<!DOCTYPE svg PUBLIC "-//W3C//DTD SVG 20010904//EN"
 "http://www.w3.org/TR/2001/REC-SVG-20010904/DTD/svg10.dtd">
<svg version="1.0" xmlns="http://www.w3.org/2000/svg"
 width="300.000000pt" height="301.000000pt" viewBox="0 0 300.000000 301.000000"
 preserveAspectRatio="xMidYMid meet">
<metadata>
Created by potrace 1.10, written by Peter Selinger 2001-2011
</metadata>
<g transform="translate(0.000000,301.000000) scale(0.100000,-0.100000)"
fill="#000000" stroke="none">
<path d="M0 1505 l0 -1505 1500 0 1500 0 0 1505 0 1505 -1500 0 -1500 0 0
-1505z m1959 364 c217 -35 363 -161 438 -376 25 -72 27 -95 32 -283 l6 -205
243 -3 242 -2 -2 -223 -3 -222 -820 0 -820 0 0 410 c0 456 3 482 70 615 109
218 352 332 614 289z m-1099 -508 c205 -71 336 -242 370 -486 5 -38 10 -134
10 -212 l0 -143 243 -2 242 -3 3 -222 2 -223 -825 0 -825 0 0 395 c0 445 5
495 67 624 25 52 55 93 102 140 120 120 239 163 431 158 86 -3 132 -10 180
-26z"/>
<path d="M1777 1400 c-47 -14 -94 -57 -118 -107 -19 -40 -24 -68 -27 -171 l-4
-122 228 2 229 3 -1 113 c-2 135 -18 185 -74 236 -57 51 -152 70 -233 46z"/>
<path d="M549 897 c-29 -16 -54 -40 -74 -72 -29 -46 -30 -54 -34 -177 l-3
-128 227 0 227 0 -4 123 c-5 131 -19 177 -70 224 -61 57 -190 72 -269 30z"/>
</g>
</svg>
